<svg id="Laag_1" data-name="Laag 1" xmlns="http://www.w3.org/2000/svg" viewBox="0 0 1298.54 236.58"><defs><style>.cls-1{fill:#FFFF;}</style></defs><title>MD_LOGO_PAARS_RGB</title><path class="cls-1" d="M279,165.64V71.47h27.48v10.8c4.75-8.29,16.85-13.6,27.1-13.6,13.41,0,23.1,5.5,27.85,14.81,7.36-10.62,16.49-14.81,29.16-14.81,17.78,0,34.83,10.44,34.83,36v61H397.56V111.05c0-8.94-4.75-15.92-15-15.92s-15.74,7.73-15.74,16.11v54.4h-28.4V111.05c0-8.94-4.76-15.92-15.19-15.92-10.06,0-15.55,7.73-15.55,16.3v54.21Z"/><path class="cls-1" d="M461.27,25.83A16.86,16.86,0,1,1,444.6,42.69a16.9,16.9,0,0,1,16.67-16.86M447,71.47H475.8v94.17H447Z"/><path class="cls-1" d="M498,71.47h28.78v101c0,18.9-11.92,32-31.11,32-10.06,0-14.62-2-15.92-2.61V178a30.08,30.08,0,0,0,8.57,1.12c6.61,0,9.68-3.82,9.68-9.68Zm14.25-45.64a16.86,16.86,0,1,1-16.67,16.85,16.78,16.78,0,0,1,16.67-16.85"/><path class="cls-1" d="M577.7,165.64H548.92V71.47h27.85v10.8c5.13-8.94,16.67-13.22,26.36-13.22,23.66,0,34.28,16.85,34.28,37.53v59.15H608.63V111.52c0-9.32-4.94-16.3-15.37-16.3-9.5,0-15.56,7-15.56,16.49Z"/><path class="cls-1" d="M752.63,148.78c0,8.57.56,14.81.75,16.86H725.71a65.42,65.42,0,0,1-.74-9.13c-4.38,6.43-13.79,11.18-25.15,11.18-26.55,0-46.58-20.5-46.58-49.46,0-28,18.91-49.09,45.65-49.09,16.11,0,23.1,6,25.42,9.69V28.53h28.41V148.78ZM703.36,142c11.17,0,21.23-7.92,21.23-23.47,0-15.75-10.06-23.29-21.23-23.29s-21.24,7.54-21.24,23.29c0,15.55,10.06,23.47,21.24,23.47"/><path class="cls-1" d="M869.25,118.51c0,29.15-21.8,50-50,50-28,0-50-20.86-50-50s22-49.84,50-49.84c28.32,0,50,20.68,50,49.84m-28.78,0c0-15.93-10.25-23.29-21.24-23.29-10.8,0-21.24,7.36-21.24,23.29,0,15.74,10.44,23.47,21.24,23.47,11.08,0,21.24-7.55,21.24-23.47"/><path class="cls-1" d="M885.92,165.64V71.47H913.4v10.8c4.75-8.29,16.86-13.6,27.1-13.6,13.42,0,23.1,5.5,27.85,14.81,7.36-10.62,16.49-14.81,29.16-14.81,17.79,0,34.84,10.44,34.84,36v61h-27.86V111.05c0-8.94-4.75-15.92-15-15.92s-15.74,7.73-15.74,16.11v54.4H945.35V111.05c0-8.94-4.75-15.92-15.18-15.92-10.06,0-15.56,7.73-15.56,16.3v54.21Z"/><path class="cls-1" d="M1140.76,138.53c-4.56,16.3-19.46,29.9-43.4,29.9-26,0-49.09-18.53-49.09-50.2,0-30.28,22.54-49.65,47-49.65,29.15,0,47.13,18,47.13,48.34a61.77,61.77,0,0,1-.56,8.94h-65.57c.55,10.62,10.24,18.17,21.42,18.17,10.43,0,16.3-4.94,18.91-12.3Zm-26.17-31.2c-.37-7.17-5.31-15.93-18.91-15.93-12.11,0-18.16,8.94-18.72,15.93Z"/><path class="cls-1" d="M1173.18,25.83a16.86,16.86,0,1,1-16.67,16.86,16.9,16.9,0,0,1,16.67-16.86m-14.25,45.64h28.78v94.17h-28.78Z"/><path class="cls-1" d="M1238.66,165.64h-28.78V71.47h27.85v10.8c5.12-8.94,16.67-13.22,26.36-13.22,23.66,0,34.28,16.85,34.28,37.53v59.15h-28.78V111.52c0-9.32-4.94-16.3-15.37-16.3-9.5,0-15.56,7-15.56,16.49Z"/><path class="cls-1" d="M118.41,165.54a47.22,47.22,0,1,1,47.22-47.22,47.22,47.22,0,0,1-47.22,47.22m0-165.33a118.11,118.11,0,1,0,118.1,118.11C236.42,53.21,183.51.21,118.41.21"/></svg>